<svg xmlns="http://www.w3.org/2000/svg" viewBox="0 0 64 64" id="login"><path d="M28.658 48.324a3.91 3.91 0 0 1-2.821-1.224 3.894 3.894 0 0 1-1.102-2.796 3.92 3.92 0 0 1 1.215-2.776l5.158-5.583H12.186c-1.369 0-2.22-1.512-2.22-3.945s.851-3.945 2.22-3.945h18.922l-5.165-5.591c-1.539-1.429-1.631-3.929-.151-5.519a3.99 3.99 0 0 1 4.021-1.103l.018.005c.569.18 1.1.489 1.535.895l11.368 10.555c1.272 1.258 1.934 2.812 1.934 4.515a6.265 6.265 0 0 1-1.819 4.426L31.411 47.214a3.666 3.666 0 0 1-1.634.938 3.736 3.736 0 0 1-1.119.172zM12.332 33.945H35.68l-8.303 8.983c-.42.405-.633.892-.643 1.411a1.91 1.91 0 0 0 .543 1.373c.515.537 1.256.736 1.94.52.32-.087.588-.242.794-.447l11.432-10.972a4.262 4.262 0 0 0 1.224-3.002c0-1.157-.456-2.219-1.317-3.071L30.003 18.206a2.049 2.049 0 0 0-.766-.448 1.981 1.981 0 0 0-1.981.55 1.946 1.946 0 0 0 .104 2.746l8.319 9.001H12.332c-.148.23-.365.92-.365 1.945s.216 1.715.365 1.945z"></path><path d="M49.235 55.974H19.537c-2.646 0-4.799-1.902-4.799-4.24v-2.65a1 1 0 1 1 2 0v2.65c0 1.235 1.256 2.24 2.799 2.24h29.698c1.543 0 2.799-1.005 2.799-2.24V12.265c0-1.235-1.256-2.24-2.799-2.24H19.537c-1.543 0-2.799 1.005-2.799 2.24v5.007a1 1 0 1 1-2 0v-5.007c0-2.338 2.152-4.24 4.799-4.24h29.698c2.646 0 4.799 1.902 4.799 4.24v39.469c0 2.338-2.152 4.24-4.799 4.24z"></path></svg>